<svg xmlns="http://www.w3.org/2000/svg" fill="rgba(232,113,44,.5)" viewBox="0 0 223.15 185.33">
  <path d="M130.49 0a92.06 92.06 0 0 1 65.52 27.14c17.5 17.51 27.14 40.78 27.14 65.53s-9.64 48.02-27.14 65.52c-17.5 17.5-40.77 27.14-65.52 27.14s-48.02-9.64-65.52-27.14L.4 93.62a1.35 1.35 0 0 1 0-1.91l64.57-64.57A92.06 92.06 0 0 1 130.49 0Zm0 184.83c24.62 0 47.76-9.59 65.17-26.99s26.99-40.55 26.99-65.17-9.59-47.76-26.99-65.17C178.25 10.09 155.11.51 130.49.51S82.73 10.1 65.32 27.5L.75 92.07a.86.86 0 0 0 0 1.21l64.57 64.57a91.62 91.62 0 0 0 65.17 26.98Z"/>
  <path d="M130.63 3.68a88.22 88.22 0 0 1 62.81 26.02c16.78 16.78 26.02 39.09 26.02 62.81s-9.24 46.04-26.02 62.81c-16.78 16.79-39.08 26.03-62.81 26.03s-46.04-9.24-62.81-26.02C65.36 152.87 9 96.51 6.2 93.4l-.04.04c-.5-.51-.5-1.33 0-1.84l.02.02c.55-.66 4.34-4.51 30.78-31.01 13.93-13.97 30.83-30.88 30.91-30.95a88.19 88.19 0 0 1 62.76-25.98Zm0 177.18c23.6 0 45.78-9.19 62.47-25.88 16.68-16.68 25.87-38.87 25.87-62.47s-9.19-45.78-25.88-62.47-38.87-25.88-62.47-25.88S84.87 13.34 68.19 30c-.5.48-59.61 59.69-61.63 61.85s-.07.08-.07.08a.83.83 0 0 0 0 1.15l.07.08c2.05 2.19 60.99 61.21 61.59 61.81a87.75 87.75 0 0 0 62.48 25.89Z"/>
  <path d="M130.77 7.36c22.7 0 44.05 8.84 60.1 24.9 16.05 16.05 24.9 37.4 24.9 60.1s-8.84 44.05-24.9 60.1l-.17-.17.17.17c-16.05 16.05-37.4 24.9-60.1 24.9s-44.05-8.84-60.1-24.9c-.57-.57-56.06-56.14-58.72-59.25l-.03.03a1.26 1.26 0 0 1 0-1.76l.02.02c.51-.65 4.08-4.36 29.31-29.72C54.93 48.03 70.62 32.3 70.77 32.17a84.37 84.37 0 0 1 60-24.81Zm0 169.52c22.58 0 43.8-8.79 59.77-24.76 15.96-15.96 24.75-37.18 24.75-59.76s-8.79-43.8-24.76-59.77c-15.96-15.96-37.19-24.76-59.77-24.76S87.02 16.6 71.07 32.52c-.49.46-56.94 57.04-58.76 59.21v.02l-.07.07c-.3.3-.3.79 0 1.09l.07.09c1.8 2.1 58.12 58.56 58.68 59.13a84.02 84.02 0 0 0 59.78 24.75Z"/>
  <path d="M130.91 11.04c21.68 0 42.06 8.44 57.4 23.77s23.77 35.71 23.77 57.4-8.44 42.06-23.77 57.4-35.71 23.77-57.4 23.77-42.06-8.44-57.4-23.77c-.55-.55-53.33-53.49-55.83-56.56l-.03.02a1.23 1.23 0 0 1 0-1.69c.47-.62 3.81-4.19 27.83-28.41A8313.72 8313.72 0 0 1 73.62 34.7a80.6 80.6 0 0 1 57.28-23.66Zm0 161.87c21.56 0 41.82-8.4 57.07-23.64s23.63-35.51 23.63-57.06-8.4-41.82-23.64-57.07S152.46 11.5 130.9 11.5s-41.73 8.36-56.96 23.54c-.48.43-54.36 54.56-55.89 56.57v.02l-.07.07a.75.75 0 0 0 0 1.04l.07.09c1.59 2.03 55.24 55.9 55.78 56.44a80.19 80.19 0 0 0 57.08 23.64Z"/>
  <path d="M131.05 14.71c20.66 0 40.08 8.04 54.69 22.65s22.65 34.03 22.65 54.69-8.04 40.08-22.65 54.69-34.04 22.65-54.69 22.65-40.08-8.04-54.69-22.65c-.52-.52-50.6-50.84-52.92-53.88l-.02.02a1.17 1.17 0 0 1 0-1.61l.02.02c2.3-3.12 52.57-53.63 53.09-54.07a76.75 76.75 0 0 1 54.52-22.51Zm0 154.23c20.54 0 39.85-8 54.37-22.52s22.51-33.83 22.51-54.37-8-39.85-22.52-54.37c-14.52-14.52-33.83-22.52-54.37-22.52s-39.72 7.95-54.22 22.38c-.46.41-51.67 51.9-53.02 53.92v.04l-.06.07a.71.71 0 0 0 0 .98l.06.1c1.4 1.98 52.36 53.25 52.88 53.76a76.36 76.36 0 0 0 54.37 22.53Z"/>
  <path d="M131.19 18.39a73.05 73.05 0 0 1 51.98 21.53C197.05 53.8 204.7 72.26 204.7 91.9s-7.65 38.09-21.53 51.98c-13.88 13.88-32.34 21.53-51.98 21.53s-38.09-7.65-51.98-21.53c-.49-.49-47.88-48.19-50.03-51.2a1.1 1.1 0 0 1 0-1.53c2.14-3.07 49.74-51.01 50.23-51.42a72.97 72.97 0 0 1 51.78-21.34Zm51.66 125.17c13.8-13.8 21.4-32.15 21.4-51.67s-7.6-37.87-21.4-51.67-32.15-21.4-51.67-21.4-37.71 7.54-51.48 21.23c-.45.38-48.97 49.21-50.16 51.28v.05l-.06.06a.67.67 0 0 0 0 .93l.06.06v.04c1.18 1.88 47.74 48.85 49.97 51.08a72.6 72.6 0 0 0 51.67 21.4 72.46 72.46 0 0 0 51.67-21.39Z"/>
  <path d="M131.33 22.07a69.23 69.23 0 0 1 49.27 20.41C193.76 55.63 201 73.13 201 91.74s-7.25 36.11-20.41 49.27c-13.16 13.16-30.66 20.41-49.27 20.41s-36.11-7.25-49.27-20.41c-.46-.46-45.15-45.54-47.12-48.52a1.05 1.05 0 0 1-.03-1.42c.25-.51 2.53-3.26 23.42-24.58A2882.2 2882.2 0 0 1 82.3 42.25a69.19 69.19 0 0 1 49.04-20.18Zm0 138.92a68.8 68.8 0 0 0 48.97-20.28c13.07-13.08 20.27-30.47 20.27-48.97s-7.2-35.89-20.28-48.97-30.47-20.28-48.97-20.28-35.7 7.13-48.74 20.08c-.43.36-46.63 47.01-47.3 48.66v.09h-.05a.65.65 0 0 0 0 .88l.06.06v.05c1 1.85 44.8 46.12 47.07 48.4a68.8 68.8 0 0 0 48.97 20.28Z"/>
  <path d="M131.46 25.74a65.4 65.4 0 0 1 46.56 19.29c12.44 12.44 19.29 28.97 19.29 46.56s-6.85 34.12-19.29 46.56l-.15-.15.15.15c-12.43 12.44-28.97 19.29-46.56 19.29s-34.12-6.85-46.56-19.29c-.43-.43-42.42-42.88-44.22-45.84-.36-.39-.36-1 0-1.39 1.77-3.06 44.07-45.78 44.5-46.15a65.38 65.38 0 0 1 46.28-19.03Zm0 131.28a65.04 65.04 0 0 0 46.27-19.16 65 65 0 0 0 19.17-46.27 65.04 65.04 0 0 0-19.16-46.27 65 65 0 0 0-46.27-19.16 64.73 64.73 0 0 0-46.01 18.93c-.42.35-43.81 44.16-44.43 46.02v.08l-.05.03a.61.61 0 0 0 0 .82l.05.06v.08c.62 1.57 42.02 43.55 44.16 45.69a65.1 65.1 0 0 0 46.27 19.15Z"/>
  <path d="M131.6 29.42c16.57 0 32.14 6.45 43.85 18.16s18.16 27.29 18.16 43.85-6.45 32.14-18.16 43.85-27.29 18.16-43.85 18.16-32.14-6.45-43.85-18.16C87.34 134.87 48 95 46.42 92.11a.96.96 0 0 1 0-1.29c1.37-2.9 41.24-43.19 41.65-43.54a61.59 61.59 0 0 1 43.54-17.86Zm0 123.63c16.46 0 31.93-6.41 43.57-18.05s18.05-27.11 18.05-43.56-6.41-31.93-18.05-43.56c-11.64-11.63-27.11-18.05-43.57-18.05S99.92 36.14 88.33 47.6c-.4.34-41.08 41.54-41.56 43.38v.08l-.05.04c-.2.21-.2.55 0 .76l.05.06V92c.52 1.62 39.25 41.01 41.26 43.02a61.3 61.3 0 0 0 43.57 18.03Z"/>
  <path d="M131.74 33.1a57.8 57.8 0 0 1 41.14 17.04c10.99 10.99 17.04 25.6 17.04 41.14s-6.05 30.15-17.04 41.14c-10.99 10.99-25.6 17.04-41.14 17.04s-30.15-6.05-41.14-17.04c-.38-.38-37.19-37.79-38.44-40.51a.92.92 0 0 1-.02-1.16c.1-.43 1.46-2.54 19-20.73a1309.84 1309.84 0 0 1 19.81-20.21 57.75 57.75 0 0 1 40.79-16.71Zm41.01 99.19-.14-.14c10.92-10.92 16.93-25.43 16.93-40.87s-6.01-29.95-16.93-40.87-25.43-16.93-40.87-16.93-29.67 5.9-40.53 16.62c-.55.47-10.2 10.24-19.66 20.04-16.98 17.6-18.97 20.33-19.03 20.69v.08l-.05.05a.53.53 0 0 0 0 .71l.05.06v.07c.42 1.67 36.49 38.47 38.35 40.34 10.92 10.92 25.43 16.93 40.87 16.93s29.95-6.01 40.87-16.93l.14.15Z"/>
  <path d="M131.88 36.77a53.96 53.96 0 0 1 38.43 15.92 54 54 0 0 1 15.92 38.43 53.98 53.98 0 0 1-15.92 38.43l-.13-.13.13.13c-10.26 10.28-23.91 15.93-38.43 15.93s-28.17-5.65-38.43-15.92c-.35-.35-34.54-35.22-35.54-37.84a.86.86 0 0 1 0-1.09c.83-2.79 35.58-37.99 35.93-38.29a53.96 53.96 0 0 1 38.05-15.57Zm38.17 92.52c10.19-10.19 15.81-23.75 15.81-38.16s-5.61-27.97-15.81-38.16c-10.19-10.19-23.75-15.81-38.17-15.81s-27.66 5.49-37.79 15.47c-.62.52-9.48 9.52-18.33 18.76C60.08 87.76 58.3 90.37 58.27 90.73v.07l-.05.05a.5.5 0 0 0 0 .65l.05.05v.07c.3 1.71 33.72 35.94 35.45 37.67a53.63 53.63 0 0 0 38.16 15.81 53.6 53.6 0 0 0 38.17-15.81Z"/>
  <path d="M132.02 40.45c13.5 0 26.18 5.26 35.73 14.8 9.54 9.54 14.8 22.23 14.8 35.73s-5.26 26.18-14.8 35.73c-9.54 9.54-22.23 14.8-35.73 14.8s-26.18-5.26-35.73-14.8c-.32-.32-31.85-32.59-32.64-35.17a.81.81 0 0 1 0-1c.65-2.82 32.74-35.39 33.07-35.66a50.07 50.07 0 0 1 35.31-14.43Zm0 100.68c13.4 0 25.99-5.22 35.46-14.69 9.47-9.47 14.69-22.07 14.69-35.46s-5.22-25.99-14.69-35.46c-9.47-9.47-22.07-14.69-35.46-14.69s-25.65 5.08-35.06 14.32c-2.42 2.03-32.94 33.81-32.95 35.47v.07l-.04.05a.48.48 0 0 0 0 .6l.04.05v.07c.16 1.68 29.72 32.17 32.55 35a49.9 49.9 0 0 0 35.46 14.67Z"/>
  <path d="M132.16 44.13a46.4 46.4 0 0 1 33.02 13.68c8.82 8.82 13.68 20.54 13.68 33.02s-4.86 24.2-13.68 33.02c-8.82 8.82-20.54 13.68-33.02 13.68s-24.2-4.86-33.02-13.68c-.29-.29-29.11-29.93-29.74-32.5a.78.78 0 0 1 0-.92c.21-1.14 5.1-6.81 14.55-16.86 7.2-7.66 14.85-15.5 15.65-16.18a46.3 46.3 0 0 1 32.56-13.26Zm32.89 79.58-.13-.13c8.75-8.75 13.57-20.39 13.57-32.76s-4.82-24.01-13.57-32.76c-8.75-8.75-20.39-13.57-32.76-13.57s-23.64 4.67-32.32 13.16c-2.14 1.8-30.09 30.86-30.09 32.84v.07l-.04.05a.42.42 0 0 0 0 .54l.04.05v.06c.03 1.68 27.05 29.73 29.64 32.33 8.75 8.75 20.39 13.57 32.76 13.57s24.01-4.82 32.76-13.57l.14.12Z"/>
  <path d="M132.3 47.8a42.61 42.61 0 0 1 30.31 12.55c8.1 8.1 12.55 18.86 12.55 30.31s-4.46 22.21-12.55 30.31c-8.1 8.1-18.86 12.55-30.31 12.55s-22.21-4.46-30.31-12.55c-.27-.27-26.33-27.23-26.83-29.83a.76.76 0 0 1 0-.84c.16-1.17 4.56-6.41 13.06-15.57 6.52-7.02 13.4-14.11 14.27-14.83 8-7.79 18.6-12.1 29.81-12.1Zm30.07 72.93c8.03-8.03 12.45-18.71 12.45-30.06s-4.42-22.03-12.45-30.06c-8.03-8.03-18.71-12.45-30.06-12.45s-21.63 4.27-29.58 12.01c-1.81 1.52-27.22 28.04-27.22 30.21v.05l-.04.05a.4.4 0 0 0 0 .49l.04.05v.06c.03 1.86 24.31 27.22 26.74 29.65a42.24 42.24 0 0 0 30.06 12.45 42.24 42.24 0 0 0 30.06-12.45Z"/>
  <path d="M132.44 51.48a38.79 38.79 0 0 1 27.6 11.43c7.37 7.37 11.43 17.17 11.43 27.6s-4.06 20.23-11.43 27.6c-7.37 7.37-17.17 11.43-27.6 11.43s-20.23-4.06-27.6-11.43c-.24-.24-23.53-24.49-23.93-27.15a.7.7 0 0 1 0-.76c.31-2.92 23.02-26.56 24.46-27.77a38.69 38.69 0 0 1 27.07-10.95Zm0 77.73a38.47 38.47 0 0 0 27.36-11.33c7.31-7.31 11.33-17.03 11.33-27.36s-4.03-20.05-11.33-27.36c-7.31-7.31-17.03-11.33-27.36-11.33s-19.62 3.86-26.84 10.86c-2.51 2.1-24.35 25.29-24.35 27.58v.06l-.04.04c-.1.12-.1.31 0 .44l.04.04v.06c.03 2.01 21.67 24.82 23.83 26.98a38.51 38.51 0 0 0 27.36 11.32Z"/>
  <path d="M132.58 55.16c9.4 0 18.24 3.66 24.89 10.31 6.65 6.65 10.31 15.49 10.31 24.89s-3.66 18.24-10.31 24.89-15.49 10.31-24.89 10.31-18.24-3.66-24.89-10.31c-1.31-1.31-20.72-21.79-21.02-24.48a.64.64 0 0 1 0-.68c.23-2.96 19.64-23.5 21.59-25.14a34.89 34.89 0 0 1 24.32-9.79Zm0 70.08c9.32 0 18.08-3.63 24.66-10.22 6.59-6.59 10.22-15.35 10.22-24.66s-3.63-18.07-10.22-24.66c-6.59-6.59-15.35-10.21-24.66-10.21s-17.61 3.45-24.11 9.71c-2.13 1.79-21.49 22.38-21.49 24.95v.05l-.03.04a.35.35 0 0 0 0 .39l.03.04v.05c.03 2.21 18.95 22.33 20.93 24.31a34.73 34.73 0 0 0 24.67 10.21Z"/>
  <path d="M132.72 58.84c8.38 0 16.26 3.26 22.18 9.19s9.19 13.8 9.19 22.18-3.26 16.26-9.19 22.18-13.8 9.19-22.18 9.19-16.26-3.26-22.18-9.19c-1.13-1.13-17.89-19.02-18.11-21.81a.6.6 0 0 1 0-.61c.17-3.04 16.54-20.68 18.72-22.5a31.02 31.02 0 0 1 21.57-8.63Zm0 62.42c8.3 0 16.1-3.23 21.96-9.1 5.87-5.87 9.1-13.67 9.1-21.96s-3.23-16.1-9.1-21.96c-5.87-5.87-13.67-9.1-21.96-9.1s-15.6 3.04-21.37 8.55c-2.16 1.81-18.62 19.58-18.62 22.32v.05l-.03.04a.3.3 0 0 0 0 .34l.03.04v.05c0 .57 1.11 2.77 8.4 11.09 4.44 5.07 8.89 9.81 9.63 10.55a30.89 30.89 0 0 0 21.96 9.09Z"/>
  <path d="M132.86 62.51c7.36 0 14.27 2.86 19.47 8.07s8.07 12.12 8.07 19.47-2.87 14.27-8.07 19.47c-5.2 5.2-12.12 8.07-19.47 8.07s-14.27-2.86-19.47-8.07c-1.75-1.75-15.04-16.3-15.21-19.13a.62.62 0 0 1 0-.53c.12-3.11 13.62-18 15.85-19.87a27.28 27.28 0 0 1 18.83-7.48Zm0 54.78c7.28 0 14.12-2.83 19.26-7.98 5.14-5.14 7.98-11.99 7.98-19.26s-2.83-14.12-7.98-19.26c-5.15-5.15-11.99-7.98-19.26-7.98s-13.59 2.63-18.63 7.4C112 72.09 98.48 86.95 98.48 89.9v.04l-.02.04a.3.3 0 0 0 0 .29l.02.04v.04c.04 2.45 12.84 16.69 15.12 18.96a27.04 27.04 0 0 0 19.26 7.98Z"/>
  <path d="M133 66.19c6.33 0 12.29 2.47 16.76 6.94s6.94 10.43 6.94 16.76-2.47 12.29-6.94 16.76-10.43 6.94-16.76 6.94-12.29-2.47-16.76-6.94c-1.47-1.47-12.18-13.45-12.3-16.46a.58.58 0 0 1 0-.45c.07-3.33 10.67-15.3 12.98-17.24A23.52 23.52 0 0 1 133 66.19Zm0 47.13c6.26 0 12.14-2.44 16.56-6.86s6.86-10.31 6.86-16.56-2.44-12.14-6.86-16.56-10.31-6.86-16.56-6.86-11.58 2.22-15.9 6.25c-2.24 1.88-12.88 13.93-12.88 17.06l-.02.07a.28.28 0 0 0 0 .25l.02.07c.04 2.7 10.24 14.31 12.22 16.29a23.32 23.32 0 0 0 16.56 6.85Z"/>
  <path d="M133.14 69.87c5.31 0 10.3 2.07 14.05 5.82s5.82 8.75 5.82 14.05-2.07 10.3-5.82 14.05-8.75 5.82-14.05 5.82-10.3-2.07-14.05-5.82c-1.84-1.84-9.3-10.72-9.39-13.79a.59.59 0 0 1 0-.37c.04-3.41 7.64-12.54 10.11-14.61a19.7 19.7 0 0 1 13.33-5.15ZM147 103.6c3.7-3.7 5.74-8.63 5.74-13.86S150.7 79.58 147 75.88a19.49 19.49 0 0 0-13.86-5.74c-4.89 0-9.57 1.81-13.16 5.1-2.46 2.06-10.02 11.12-10.02 14.43v.05a.22.22 0 0 0-.01.21v.05c.05 2.78 7.09 11.39 9.32 13.62 3.7 3.7 8.62 5.74 13.86 5.74 5.25 0 10.17-2.03 13.87-5.74Z"/>
  <path d="M133.28 73.54c4.29 0 8.32 1.67 11.35 4.7s4.7 7.06 4.7 11.35-1.67 8.32-4.7 11.35-7.06 4.7-11.35 4.7-8.32-1.67-11.35-4.7c-1.83-1.83-6.43-7.82-6.48-11.13-.02-.07-.01-.17 0-.27.45-3.58 4.77-9.91 7.24-11.98a15.9 15.9 0 0 1 10.59-4.02Zm0 31.83c4.22 0 8.18-1.64 11.16-4.62 2.98-2.98 4.62-6.94 4.62-11.16s-1.64-8.18-4.62-11.16-6.94-4.62-11.16-4.62c-3.85 0-7.56 1.4-10.42 3.95-2.44 2.05-6.7 8.29-7.15 11.82a.45.45 0 0 0 0 .2c.05 3.02 4.26 8.83 6.41 10.98a15.7 15.7 0 0 0 11.16 4.61Z"/>
  <path d="M133.42 77.22c3.26 0 6.33 1.27 8.64 3.58 2.31 2.31 3.58 5.37 3.58 8.64s-1.27 6.33-3.58 8.64c-2.31 2.31-5.38 3.58-8.64 3.58s-6.33-1.27-8.64-3.58a12.12 12.12 0 0 1-3.58-8.64 12.24 12.24 0 0 1 12.22-12.22Zm0 24.18c3.2 0 6.2-1.24 8.46-3.5s3.5-5.26 3.5-8.46-1.24-6.2-3.5-8.46-5.26-3.5-8.46-3.5a11.97 11.97 0 0 0-8.46 20.42 11.87 11.87 0 0 0 8.46 3.5Z"/>
</svg>
