<svg xmlns="http://www.w3.org/2000/svg" viewBox="0 0 233.5 192.95" fill="#E8712B"><path d="M177.9 109.99h-54.46c-.64 0-1.16-.52-1.16-1.16V54.42C122.93 24.56 146.83.67 176.67.01c30.66-.67 56.16 23.73 56.83 54.39-.01 30.65-24.96 55.58-55.6 55.58ZM177.91 1c-.4 0-.81 0-1.21.01-29.31.64-52.77 24.1-53.42 53.41v54.4c0 .09.07.16.16.16h54.46c30.09 0 54.58-24.48 54.6-54.57-.65-29.7-25.03-53.42-54.59-53.42ZM0 137.85c0 30.43 24.67 55.1 55.1 55.1s55.09-24.67 55.1-55.1V83.49c0-.36-.3-.66-.66-.66H55.1C24.7 82.83.05 107.45 0 137.85Z"></path><circle cx="177.9" cy="159.39" r="10.79" fill="#E8712B"></circle></svg>